<svg viewBox="0 0 24 24" fill="none" stroke="currentColor" stroke-width="1.8" stroke-linecap="round" stroke-linejoin="round" aria-hidden="true" xmlns="http://www.w3.org/2000/svg"><path d="M20.5 6.3c-.7.3-1.4.5-2.2.6.8-.5 1.4-1.2 1.6-2.2-.7.5-1.6.8-2.4 1-.7-.7-1.7-1.2-2.8-1.2-2.1 0-3.8 1.7-3.8 3.9 0 .3 0 .6.1.9-3.2-.2-6-1.7-7.9-4.1-.3.6-.5 1.2-.5 2 0 1.4.7 2.6 1.7 3.3-.6 0-1.2-.2-1.7-.5v.1c0 1.9 1.3 3.5 3.1 3.9-.3.1-.7.1-1 .1-.3 0-.5 0-.7-.1.5 1.6 1.9 2.7 3.6 2.7-1.3 1-3 1.6-4.8 1.6H3c1.7 1.1 3.8 1.8 6 1.8 7.2 0 11.2-6.1 11.2-11.4v-.5c.8-.6 1.4-1.3 2-2.1z"/></svg>